<?xml version="1.0" encoding="UTF-8" standalone="no"?>
<svg
   xmlns:dc="http://purl.org/dc/elements/1.1/"
   xmlns:cc="http://creativecommons.org/ns#"
   xmlns:rdf="http://www.w3.org/1999/02/22-rdf-syntax-ns#"
   xmlns:svg="http://www.w3.org/2000/svg"
   xmlns="http://www.w3.org/2000/svg"
   xmlns:sodipodi="http://sodipodi.sourceforge.net/DTD/sodipodi-0.dtd"
   xmlns:inkscape="http://www.inkscape.org/namespaces/inkscape"
   viewBox="0 0 44.630707 37.71875"
   version="1.1"
   id="svg1153"
   sodipodi:docname="Stonks emoji.svg"
   width="44.630707"
   height="37.71875"
   inkscape:version="1.0.1 (3bc2e813f5, 2020-09-07)">
  <metadata
     id="metadata1159">
    <rdf:RDF>
      <cc:Work
         rdf:about="">
        <dc:format>image/svg+xml</dc:format>
        <dc:type
           rdf:resource="http://purl.org/dc/dcmitype/StillImage" />
        <dc:title />
      </cc:Work>
    </rdf:RDF>
  </metadata>
  <defs
     id="defs1157" />
  <sodipodi:namedview
     pagecolor="#ffffff"
     bordercolor="#666666"
     borderopacity="1"
     objecttolerance="10"
     gridtolerance="10"
     guidetolerance="10"
     inkscape:pageopacity="0"
     inkscape:pageshadow="2"
     inkscape:window-width="1366"
     inkscape:window-height="705"
     id="namedview1155"
     showgrid="false"
     inkscape:zoom="2.8284272"
     inkscape:cx="72.402341"
     inkscape:cy="29.935525"
     inkscape:window-x="-8"
     inkscape:window-y="-8"
     inkscape:window-maximized="1"
     inkscape:current-layer="svg1153"
     inkscape:document-rotation="0" />
  <g
     id="g990">
    <path
       fill="#ccd6dd"
       d="m 40.630708,1.975821 h -26 c -1.657,0 -3,1.343 -3,3 v 26 c 0,1.657 1.343,3 3,3 h 26 c 1.657,0 3,-1.343 3,-3 v -26 c 0,-1.657 -1.343,-3 -3,-3 z"
       id="path1888"
       style="fill:#1f679e;fill-opacity:1" />
    <path
       fill="#e1e8ed"
       d="m 40.630708,0.975821 h -26 c -2.209,0 -4,1.791 -4,4 v 26 c 0,2.209 1.791,4 4,4 h 26 c 2.209,0 4,-1.791 4,-4 v -26 c 0,-2.209 -1.791,-4 -4,-4 z m 0,2 c 1.103,0 2,0.897 2,2 v 4 h -6 v -6 z m -4,16 h 6 v 6 h -6 z m 0,-2 v -6 h 6 v 6 z m -2,-14 v 6 h -6 v -6 z m -6,8 h 6 v 6 h -6 z m 0,8 h 6 v 6 h -6 z m -2,-16 v 6 h -6 v -6 z m -6,8 h 6 v 6 h -6 z m 0,8 h 6 v 6 h -6 z m -8,-14 c 0,-1.103 0.897,-2 2,-2 h 4 v 6 h -6 z m 0,6 h 6 v 6 h -6 z m 0,8 h 6 v 6 h -6 z m 2,14 c -1.103,0 -2,-0.897 -2,-2 v -4 h 6 v 6 z m 6,0 v -6 h 6 v 6 z m 8,0 v -6 h 6 v 6 z m 12,0 h -4 v -6 h 6 v 4 c 0,1.103 -0.897,2 -2,2 z"
       id="path1890"
       style="fill:#3d89c3;fill-opacity:1" />
    <path
       fill="#dd2e44"
       d="m 14.628708,32.975821 c -0.32,0 -0.645,-0.076 -0.946,-0.239 -0.973,-0.523 -1.336,-1.736 -0.813,-2.709 l 7,-13 c 0.299,-0.557 0.845,-0.939 1.47,-1.031 0.626,-0.092 1.258,0.118 1.705,0.565 l 6.076,6.076 9.738,-18.59 c 0.512,-0.978 1.721,-1.357 2.699,-0.843 0.979,0.512 1.356,1.721 0.844,2.7 l -11,21 c -0.295,0.564 -0.841,0.953 -1.47,1.05 -0.627,0.091 -1.266,-0.113 -1.716,-0.563 l -6.1,-6.099 -5.724,10.631 c -0.361,0.671 -1.051,1.052 -1.763,1.052 z"
       id="path1892"
       style="fill:#ff8a3b;fill-opacity:1" />
    <path
       id="path1119"
       style="fill:#292f33;fill-opacity:1;stroke-width:1.72531"
       d="m 6.1107262,16.207031 c 0,0 -1.4991941,0.712235 -3.3187829,1.244141 C 0.772215,18.041528 0,19.132202 0,21.283203 V 35.691406 37.71875 H 18.335242 V 35.691406 21.283203 c 0,-2.151001 -0.773742,-3.241675 -2.791944,-3.832031 -1.819588,-0.531906 -3.318783,-1.244141 -3.318783,-1.244141 z" />
    <g
       id="g1863"
       transform="matrix(1.9483708,0,0,1.9483708,7.9359758,6.781182)">
      <path
         fill="#ffdc5d"
         d="M -0.82620959,3.0497966 H 2.0763509 v 3.6297053 h -2.90256049 z"
         id="path1125"
         style="stroke-width:1.20388" />
      <g
         id="g1848"
         transform="matrix(1.2038823,0,0,1.2038823,-0.14016624,-1.0593024)">
        <path
           style="fill:#ffdc5d;fill-opacity:1;stroke:none;stroke-width:0.725917px;stroke-linecap:butt;stroke-linejoin:miter;stroke-opacity:1"
           d="m -0.55295513,4.5340884 c 0,0 0.225014,-0.7788944 -0.363485,-1.5924084 C -1.5049391,2.1281668 -2.2492171,-1.091269 0.20863087,-1.8182384 2.6664809,-2.5452078 3.3934499,-1.0566514 3.6703909,-0.01812371 3.9473319,1.0204039 3.3588319,3.097459 2.7357159,3.737885 c -0.623117,0.6404244 -0.744278,0.6577334 -0.900058,0.6577334 -0.155779,0 -2.38861303,0.13847 -2.38861303,0.13847 z"
           id="path1736" />
        <path
           d="m 1.2640329,2.6689448 c 0.03951,-0.02281 0.08855,-0.02729 0.133661,-0.0081 0.605251,0.258634 1.054113,0.01278 1.073044,0.0022 0.07169,-0.04035 0.162847,-0.01527 0.203513,0.05606 0.04081,0.07159 0.01651,0.162302 -0.05473,0.203434 -0.02383,0.01376 -0.591395,0.332805 -1.339331,0.01338 -0.07606,-0.03242 -0.111291,-0.120362 -0.07879,-0.19629 0.01322,-0.03095 0.03556,-0.05507 0.06263,-0.0707 z"
           id="path1787"
           style="fill:#664500;fill-opacity:1;stroke-width:0.149563" />
        <g
           id="g1821">
          <path
             d="m 1.4300019,0.40854869 c -0.03951,0.02281 -0.08855,0.027292 -0.133661,0.00809 -0.60525103,-0.2586342 -1.05411303,-0.012781 -1.07304403,-0.0022 -0.07169,0.040347 -0.162847,0.01527 -0.203513,-0.056064 -0.04081,-0.071594 -0.01651,-0.1623023 0.05473,-0.2034338 0.02383,-0.01376 0.591395,-0.3328047 1.33933103,-0.013384 0.07606,0.03242 0.111291,0.1203618 0.07879,0.1962897 -0.01322,0.030945 -0.03556,0.05507 -0.06263,0.0707 z"
             id="path1785"
             style="fill:#664500;fill-opacity:1;stroke-width:0.149563" />
          <circle
             style="opacity:0.9998;fill:#664500;fill-opacity:1;fill-rule:evenodd;stroke:none;stroke-width:2.36453;stroke-miterlimit:3.8875"
             id="path1789"
             cx="0.75236624"
             cy="0.65370512"
             r="0.23255509" />
        </g>
        <path
           style="fill:none;stroke:#664500;stroke-width:0.282608;stroke-linecap:butt;stroke-linejoin:miter;stroke-miterlimit:4;stroke-dasharray:none;stroke-opacity:1"
           d="M 2.1672334,0.55511005 2.4122788,2.0055486 c 0,0 -0.2780372,0.2006687 -0.6394233,0.1230897 L 1.6138797,2.0945109"
           id="path1801"
           sodipodi:nodetypes="ccsc" />
        <circle
           style="opacity:0.9998;fill:#664500;fill-opacity:1;fill-rule:evenodd;stroke:none;stroke-width:1.41437;stroke-miterlimit:3.8875"
           id="circle1811"
           cx="-2.1698279"
           cy="0.57257229"
           r="0.13910553"
           transform="scale(-1,1)" />
        <circle
           style="opacity:0.9998;fill:#664500;fill-opacity:1;fill-rule:evenodd;stroke:none;stroke-width:1.47231;stroke-miterlimit:3.8875"
           id="circle1813"
           cx="-1.6219378"
           cy="2.0812943"
           r="0.14480336"
           transform="scale(-1,1)" />
        <g
           id="g1827"
           transform="translate(2.1484375,-0.01171875)">
          <path
             d="m 1.4300019,0.40854869 c -0.03951,0.02281 -0.08855,0.027292 -0.133661,0.00809 -0.60525103,-0.2586342 -1.05411303,-0.012781 -1.07304403,-0.0022 -0.07169,0.040347 -0.162847,0.01527 -0.203513,-0.056064 -0.04081,-0.071594 -0.01651,-0.1623023 0.05473,-0.2034338 0.02383,-0.01376 0.591395,-0.3328047 1.33933103,-0.013384 0.07606,0.03242 0.111291,0.1203618 0.07879,0.1962897 -0.01322,0.030945 -0.03556,0.05507 -0.06263,0.0707 z"
             id="path1823"
             style="fill:#664500;fill-opacity:1;stroke-width:0.149563" />
          <circle
             style="opacity:0.9998;fill:#664500;fill-opacity:1;fill-rule:evenodd;stroke:none;stroke-width:2.36453;stroke-miterlimit:3.8875"
             id="circle1825"
             cx="0.75236624"
             cy="0.65370512"
             r="0.23255509" />
        </g>
      </g>
    </g>
    <path
       fill="#546170"
       d="m 12.680534,20.49227 2.486121,-2.338045 -1.108623,-1.720412 -0.987824,-0.227959 -0.43059,1.110571 z"
       id="path1131"
       style="stroke-width:1.94837" />
    <path
       fill="#66757f"
       d="m 9.1617758,29.844449 6.0380012,-9.82953 -2.476379,-2.651733 z"
       id="path1133"
       style="stroke-width:1.94837" />
    <path
       fill="#546170"
       d="m 5.6605533,20.49227 -2.4861212,-2.338045 1.108623,-1.720412 0.987824,-0.227959 0.43059,1.110571 z"
       id="path1135"
       style="stroke-width:1.94837" />
    <path
       fill="#66757f"
       d="M 9.1676208,29.844449 3.1296196,20.014919 5.6059989,17.363186 Z"
       id="path1137"
       style="stroke-width:1.94837" />
    <path
       fill="#e1e8ed"
       d="M 9.1676208,29.844449 5.2708791,16.205854 9.1676208,18.154225 13.064363,16.205854 Z"
       id="path1139"
       style="stroke-width:1.94837" />
    <path
       fill="#292f33"
       d="M 11.115992,18.154225 9.1676208,17.341754 7.2192499,18.154225 8.9299198,19.864894 7.3848614,23.60187 9.1676208,29.844449 10.95038,23.60187 9.4053218,19.864894 Z"
       id="path1141"
       style="stroke-width:1.94837" />
    <path
       fill="#f5f8fa"
       d="m 6.3658634,15.352468 2.8017574,1.989286 -1.8275719,1.938629 -2.0691698,-3.074529 z m 5.6035146,0 -2.8017572,1.989286 1.8275722,1.938629 2.06917,-3.074529 z"
       id="path1143"
       style="stroke-width:1.94837" />
  </g>
</svg>
